<mxfile host="app.diagrams.net" modified="2024-06-12T08:33:03.950Z" agent="Mozilla/5.0 (Windows NT 10.0; Win64; x64) AppleWebKit/537.36 (KHTML, like Gecko) Chrome/124.0.0.0 Safari/537.36" version="24.5.3" etag="H8HVlvquGG4ssNtdgUxf" type="github">
  <diagram name="Page-1" id="zrCPmU6A1ANVLIb_OX60">
    <mxGraphModel>
      <root>
        <mxCell id="0" />
        <mxCell id="1" parent="0" />
      </root>
    </mxGraphModel>
  </diagram>
</mxfile>
